<svg xmlns="http://www.w3.org/2000/svg" width="30" height="30" viewBox="0 0 30 30">
  <path d="M15 1.146c-7.93 0-14.376 6.446-14.376 14.376 0 6.355 4.125 11.75 9.848 13.673.72.133.984-.313.984-.697 0-.344-.013-1.256-.02-2.472-4.008.882-4.848-1.933-4.848-1.933-.656-1.633-1.598-2.067-1.598-2.067-1.306-.89.099-.875.099-.875 1.442.1 2.202 1.48 2.202 1.48 1.28 2.186 3.355 1.553 4.178 1.186.13-.927.504-1.554.917-1.915-3.205-.365-6.574-1.603-6.574-7.13 0-1.577.564-2.866 1.483-3.874-.15-.364-.642-1.832.14-3.81 0 0 1.21-.387 3.966 1.476a13.828 13.828 0 0 1 3.584-.478c1.22.003 2.451.165 3.584.478 2.754-1.863 3.964-1.476 3.964-1.476.784 1.978.292 3.446.142 3.81.92 1.008 1.482 2.297 1.482 3.874 0 5.537-3.372 6.76-6.586 7.125.52.446.984 1.33.984 2.68 0 1.935-.018 3.496-.018 3.976 0 .385.262.833.988.696 5.72-1.923 9.842-7.318 9.842-13.674 0-7.93-6.446-14.376-14.376-14.376z"/>
</svg>
