<svg xmlns="http://www.w3.org/2000/svg" width="30" height="30" viewBox="0 0 30 30">
  <path d="M28.928 6.412c-.97.431-2.014.724-3.116.858 1.119-.673 1.983-1.735 2.395-3.006-.969.578-2.041.995-3.186 1.223-.914-.974-2.214-1.582-3.657-1.582-2.764 0-5.004 2.239-5.004 5.004 0 .392.044.776.129 1.149-4.155-.209-7.832-2.238-10.293-5.33-.431.742-.68 1.601-.68 2.523 0 1.738.885 3.273 2.228 4.162-.82-.026-1.592-.251-2.267-.623v.064c0 2.429 1.729 4.457 4.022 4.927-.419.111-.86.169-1.312.169-.32 0-.63-.031-.938-.088.63 1.982 2.451 3.425 4.61 3.463-1.687 1.324-3.81 2.11-6.113 2.11-.397 0-.786-.024-1.174-.07 2.174 1.396 4.746 2.208 7.522 2.208 9.02 0 13.96-7.479 13.96-13.957 0-.208 0-.416-.015-.625.96-.706 1.795-1.582 2.457-2.59z"/>
</svg>